<?xml version="1.0" encoding="UTF-8"?>
<svg enable-background="new 0 0 1599.7 358.7" version="1.1" viewBox="0 0 1599.7 358.7" xml:space="preserve" xmlns="http://www.w3.org/2000/svg">
<style type="text/css">
  .st0{fill:#FFFFFF;}
</style>
  <path class="st0" d="M178.9,0C80.1,0,0,80.2,0,178.9s80.1,179.8,178.9,179.8c98.6,0,178.9-81.2,178.9-179.8   C357.8,80.1,277.7,0,178.9,0z M178.9,338.4c-88,0-159.4-71.4-159.4-159.4S91,19.6,178.9,19.6S338.2,90.8,338.3,179   C338.3,267,266.9,338.4,178.9,338.4z"/>
  <path class="st0" d="m70.5 209.1c0 81.2 101.5 125.2 105.5 127.1l2.9 1 3.1-1.9c4.9-1.8 105.5-46.9 105.5-124.1v-146.6h-217v144.5zm15.6 0.1v-43.9h87.8v11.3c-2.2-0.5-7-1.6-12.4-0.8-2.9 0-5.9 1-8.8 1-5 0-8.8 1-12.8 1h-16.6-5.9v98.8h5.9 13.6s12.7-1 17.6-1c4.7-1 8.7-1 14.6-1 1 0 1.9 0.9 2.9 1.9 0.4 0.5 1 1.3 1.9 2.1v40.1c-24.1-12.5-87.8-50.9-87.8-109.5zm87.8 55.3c-1.4-0.4-3.1-0.7-4.8-0.7-6.8 0-10.7 0-15.4 1-4.8 0-9.7 1-16.6 1h-6.9v-76.1h10.8c3.7 0 8.7 0 13.6-1 2.9 0 5.9-1 8.8-1 5-1 9.9 0 9.9 0l0.6 0.3v76.5zm11.7-76.3c0.3-0.2 0.8-0.5 1.3-0.5 0 0 5-1 9.9 0 2.9 0 5.9 1 8.8 1 4.8 0 9.7 1 13.6 1h10.8v76.1h-6.9c-6.7 0-11.7-1-16.6-1-5-1-9.9-1-15.8-1-1.9 0-3.6 0.3-5.1 0.8v-76.4zm0-0.1v-0.5l0.4 0.1-0.4 0.4zm0 130.6v-40.5c0.8-0.5 1.6-1.1 2.5-1.7 1-1.9 1-1.9 2.9-1.9 5.8 0 9.7 1 14.6 1 4.8 0 9.8 1 17.6 1h13.6 5.8v-98.8h-5.9-16.6c-4 0-7.9 0-12.8-1-2.9 0-5.9-1-8.8-1-5.4 0-11 0.7-12.9 0.9v-11.4h88.1v46.8c0 55.1-64.6 94.1-88.1 106.6zm88.1-166.2h-187.6v-72.4h187.6v72.4z"/>
  <path class="st0" d="m112.6 136.8c6.8 4.9 18.6 11.8 18.6 11.8l1.9 1 2.9-1c0.9 0 11.7-6.9 19.5-11.8 5.9-4 8.8-7.9 8.8-12.8v-36.1-4.9h-61.6v4.9 36.1c1.1 4 4 8.8 9.9 12.8zm36.1-7.9c-4.8 3-12.6 8-16.6 9.9-4-2.1-10.9-7-15.8-9.9-3-1.9-4.9-4.9-4.9-5.9v-12.5h42.2v13.5c0 2-3 3.9-4.9 4.9zm-37.2-37.1v1h42.1v8.9h-42.2c0-3.3 0-6.7 0.1-9.9z"/>
  <path class="st0" d="m208.2 136.8c6.8 4.9 18.6 11.8 18.6 11.8l1.9 1 2.9-1c0.9 0 11.7-6.9 19.5-11.8 5.9-4 8.8-7.9 8.8-12.8v-36.1-4.9h-61.6v4.9 36.1c1.1 4 4 8.8 9.9 12.8zm36.4-7.9c-4.9 3-12.6 8-16.6 9.9-4.1-2.1-10.9-7-15.8-9.9-3-1.9-4.9-4.9-4.9-5.9v-1.8l20.5-14.6 21.7 14.1v3.3c0 2-3 3.9-4.9 4.9zm-37.1-37.1v1h42v17.7l-21.7-14.7-20.5 14.4v-18.4h0.2z"/>
  <rect class="st0" x="136.8" y="200.3" width="25.4" height="8.8"/>
  <rect class="st0" x="136.8" y="220.8" width="25.4" height="8.8"/>
  <rect class="st0" x="136.8" y="241.5" width="25.4" height="8.8"/>
  <rect class="st0" x="193.5" y="200.3" width="25.4" height="8.8"/>
  <rect class="st0" x="193.5" y="220.8" width="25.4" height="8.8"/>
  <rect class="st0" x="193.5" y="241.5" width="25.4" height="8.8"/>
  <path class="st0" d="m451.4 142.4c3.7-3.7 8.1-6.4 13-8.1s10.9-2.6 17.9-2.7c9.4 0 16.6 1.2 21.5 3.6s7.6 6 8.1 10.9l0.1 8.8h4.7c0.3-5.6 0.8-10.4 1.6-14.7 0.5-2.6 1.4-5.3 2.5-8-1.2-0.2-4.6-1.1-10.2-2.6-5.5-1.5-10.2-2.5-14.1-3-3.8-0.5-8-0.8-12.5-0.8-19.1 0-34.2 5.2-45.2 15.6s-16.6 23.5-16.6 39.3c0 6.2 0.8 12 2.5 17.2 1.6 5.2 4 10.1 7.1 14.5s7.2 8.5 12.1 12.1 10.7 6.4 17.3 8.3 13.7 2.9 21.4 2.9c6.5 0 12.6-0.7 18.1-2 5.6-1.3 11.2-3.4 17-6.4l2.9-6.9-1.3-1.6c-3.9 2.8-7.9 4.8-11.8 6.1-5.8 1.9-12.1 2.8-18.9 2.8-15.1 0-27.2-4.6-36.4-13.7-9.2-9.2-13.8-21.2-13.8-36.3 0-8.6 1.3-15.7 3.6-21.4 2.6-5.5 5.6-10.2 9.4-13.9z"/>
  <path class="st0" d="m565 161.7c-11.1 0-20.1 3.5-27.2 10.5s-10.6 16.1-10.6 27.2c0 6.1 1.1 11.9 3.4 17.3 1.3 3.1 3.2 6.1 5.7 9s5.7 5.4 9.7 7.3 8.9 2.9 14.6 2.9c7.4 0 14.2-1.7 20.3-5.1s10.9-8.1 14.3-14.1 5.1-12.6 5.1-19.9c0-10.4-3.3-18.8-9.8-25.4-6.6-6.4-15.1-9.7-25.5-9.7zm15.1 62.1c-3.9 4.6-8.7 6.8-14.4 6.8-4.5 0-8.7-1.5-12.5-4.4s-6.8-7.5-8.8-13.8-3-12.5-3-18.6c0-9.3 1.9-16.2 5.7-20.6s8.7-6.6 14.8-6.6c4.3 0 8.3 1.2 11.8 3.5 3.6 2.4 6.5 6.4 8.8 12.1s3.5 12.5 3.5 20.4c-0.1 9.6-2 16.7-5.9 21.2z"/>
  <path class="st0" d="m648.7 162c-2.1 0-4.1 0.4-6 1.2s-3.6 1.8-5.1 3.1c-0.8 0.7-2.2 2.4-4.1 4.9s-3.9 5.1-6.2 7.7c0-6.3 0.2-11 0.4-14.1 0-0.4 0.1-0.8 0.1-1.2 0-0.5-0.1-0.9-0.3-1.1s-0.5-0.4-0.8-0.4-1 0.2-2 0.7c-4.6 2.2-11.9 4-21.9 5.4v4.2c5.7 0 8.9 0.1 9.7 0.3 0.8 0.3 1.4 0.7 1.7 1.2s0.5 2.3 0.6 5.2c0.1 4.6 0.2 8.8 0.2 12.8v8.9c0 0.6-0.1 7.5-0.4 20.8-0.1 2.4-0.4 4.2-0.9 5.4-0.2 0.6-0.6 1.1-1 1.4s-1.1 0.6-1.9 0.7c-0.4 0.1-3.5 0.2-9.1 0.3v4.2c6-0.3 12.1-0.5 18.4-0.5 6.1 0 13.6 0.2 22.3 0.5v-4.2c-6.5-0.4-10.6-0.9-12-1.3-0.7-0.2-1.3-0.6-1.6-0.9-0.3-0.4-0.6-1-0.8-1.8s-0.3-2.8-0.4-5.9c-0.2-8.7-0.4-14.7-0.4-17.9v-7.7c0-6.3 1.3-11 4-14.2 2.7-3.1 5.9-4.7 9.7-4.7 2.3 0 4.2 0.5 5.7 1.6s2.8 2.8 4 5.2h3.3c0.1-5 0.5-10.8 1.3-17.4l-0.4-1c-2-0.9-4.1-1.4-6.1-1.4z"/>
  <path class="st0" d="m735.9 228.2c-0.5-0.6-0.9-1.6-1.2-3.1-0.3-2.3-0.5-6.7-0.5-13.2v-13.2c0-10.2-0.2-16.5-0.5-18.7-0.6-3.8-1.8-6.9-3.6-9.4s-4.5-4.5-8.1-6.2c-3.6-1.6-7.4-2.5-11.4-2.5-3.6 0-7.5 0.7-11.5 2.2l-13.9 11.8c0.1-5.8 0.3-9.5 0.4-11.3 0-0.4 0.1-0.8 0.1-1.2 0-0.5-0.1-0.9-0.3-1.1s-0.5-0.4-0.8-0.4-1 0.2-2 0.7c-4.6 2.2-11.9 4-21.9 5.4v4.2c5.7 0 8.9 0.1 9.7 0.3 0.8 0.3 1.4 0.7 1.7 1.2s0.6 2.3 0.7 5.2c0.1 4.6 0.2 8.8 0.2 12.8v8.9c-0.3 13.6-0.4 20.7-0.4 21.4-0.1 2.5-0.5 4.3-1 5.3-0.3 0.5-0.7 0.9-1.3 1.2s-1.4 0.5-2.4 0.6l-7.1 0.1v4.2c9.4-0.3 16.2-0.5 20.3-0.5 4.9 0 10.4 0.2 16.4 0.5v-4.2c-5.2-0.1-7.9-0.2-8.2-0.2-0.8-0.2-1.5-0.5-1.9-0.8s-0.7-0.7-0.9-1.2c-0.5-1.1-0.8-3-0.9-5.4 0-1-0.1-8-0.4-20.9v-9c0-5.5 0.7-9.3 2-11.7 1.3-2.3 3.5-4.3 6.6-6.1s6.5-2.6 10.2-2.6c4.2 0 7.8 1 10.8 3s4.9 4.7 5.7 8c0.6 2.4 0.9 7.5 0.9 15.3v12.5c0 3.2-0.3 11-1 23.2 6.4-0.3 11.1-0.5 13.8-0.5 3.2 0 7.3 0.2 12.1 0.5v-4.2l-8-0.2c-1 0.2-1.8-0.2-2.4-0.7z"/>
  <path class="st0" d="m797.5 165.4c-4.5-2.5-9.5-3.8-15.1-3.8-4.6 0-8.8 0.8-12.7 2.5-3 1.2-6 2.8-9 4.9s-5.3 3.9-6.7 5.5c-2 2.2-3.8 5.6-5.3 10.2-1.6 4.6-2.3 9.7-2.3 15.4 0 7.3 1.5 13.6 4.4 19.1 2.9 5.4 7 9.5 12.3 12.2s11.2 4.1 17.8 4.1c3.3 0 6.5-0.4 9.5-1.1s5.7-1.6 8-2.6c1.6-0.7 4.1-2.1 7.5-4.2l2.4-5.4-1.2-1.3c-4.4 2.6-8.1 4.4-11.1 5.3-3 1-6 1.4-9 1.4-4.5 0-8.8-1-12.9-3.1s-7.4-5.3-9.7-9.7c-2.4-4.4-3.6-10.1-3.7-17.2h23.9c5.4 0 10.7-0.2 16.1-0.6 2.8-0.2 6-0.6 9.6-1.3 0.2-2 0.3-3.7 0.3-5.1 0-5.5-1-10.4-3.1-14.8-2.2-4.4-5.5-7.8-10-10.4zm-0.7 26.7c-2.1 0.2-6.4 0.4-13 0.4-2.8 0-7.9-0.1-15.3-0.4-3.9-0.1-6.5-0.3-7.9-0.4 0-8.7 1.8-15 5.2-19s7.9-6 13.6-6c5.3 0 9.6 1.8 12.7 5.5 3.2 3.7 4.8 9.4 4.8 17.2 0 0.6-0.1 1.5-0.1 2.7z"/>
  <path class="st0" d="m840 228.3c-0.4-0.3-0.7-0.7-0.9-1.2-0.5-1.1-0.8-2.9-0.9-5.4 0-1-0.2-8-0.4-20.9v-38.6l0.1-11.6c0-6.2 0.2-13.8 0.4-22.7l0.1-2.5c0.1-0.6 0.1-1.1 0.1-1.5s-0.1-0.7-0.3-0.9-0.5-0.3-0.8-0.3-0.8 0.1-1.5 0.4c-4.4 2.1-12.1 3.8-23.4 5.2v4.4c6.1 0 9.5 0.2 10.3 0.5 0.5 0.2 0.9 0.5 1.2 1 0.3 0.7 0.6 4 0.8 10 0.3 8.8 0.4 17.4 0.4 25.6v30.8c-0.3 13.6-0.5 20.7-0.5 21.3-0.1 2.5-0.4 4.3-1 5.3-0.3 0.5-0.7 0.9-1.3 1.2s-1.4 0.5-2.5 0.6l-7 0.1v4.3c7.9-0.4 14.3-0.6 19.2-0.6 5.1 0 11 0.2 17.8 0.6v-4.3c-5.2-0.1-7.9-0.2-8.3-0.2-0.6 0-1.2-0.3-1.6-0.6z"/>
  <path class="st0" d="m884.3 228.3c-0.4-0.3-0.7-0.7-0.9-1.2-0.5-1.1-0.8-2.9-0.9-5.4 0-1-0.2-8-0.4-20.9v-38.6l0.1-11.6c0-6.2 0.2-13.8 0.4-22.7l0.1-2.5c0.1-0.6 0.1-1.1 0.1-1.5s-0.1-0.7-0.3-0.9-0.5-0.3-0.8-0.3-0.8 0.1-1.5 0.4c-4.4 2.1-12.1 3.8-23.4 5.2v4.4c6.1 0 9.5 0.2 10.3 0.5 0.5 0.2 0.9 0.5 1.2 1 0.3 0.7 0.6 4 0.8 10 0.3 8.8 0.4 17.4 0.4 25.6v30.8c-0.3 13.6-0.5 20.7-0.5 21.3-0.1 2.5-0.4 4.3-1 5.3-0.3 0.5-0.7 0.9-1.3 1.2s-1.4 0.5-2.5 0.6l-7 0.1v4.3c7.9-0.4 14.3-0.6 19.2-0.6 5.1 0 11 0.2 17.8 0.6v-4.3c-5.2-0.1-7.9-0.2-8.3-0.2-0.6 0-1.2-0.3-1.6-0.6z"/>
  <path class="st0" d="m1042.9 127.9c-8.9 0.4-15.1 0.6-18.5 0.6-3.8 0-9.7-0.2-17.9-0.6v4.8c5.9 0.1 9.4 0.4 10.7 0.8s2.2 1.1 2.8 1.9c0.6 0.9 0.9 3.7 1 8.4 0.2 6.4 0.3 13 0.3 19.8v22.9c0 6.5-0.2 11.9-0.7 16.1s-1.2 7.6-2.3 10-2.7 4.6-4.8 6.6c-2.2 2-5.4 3.6-9.7 5s-9.2 2-14.8 2c-4.8 0-9.1-0.5-12.9-1.5-3.9-1-6.9-2.4-9.2-4.1-3-2.2-5.1-5-6.5-8.4s-2-10.4-2-21.1v-27.5c0.1-13.1 0.2-20.1 0.3-21.1 0.1-3.8 0.5-6.2 1.2-7.2 0.4-0.7 1.3-1.3 2.6-1.7s4.9-0.7 10.7-0.8v-4.8c-6.9 0.4-13.9 0.6-21 0.6-6.9 0-14.5-0.2-22.5-0.6v4.8c5.9 0.1 9.5 0.4 10.7 0.8 1.3 0.4 2.2 1.1 2.8 1.9 0.6 0.9 0.9 3.7 1.1 8.4 0.1 6.4 0.2 13 0.2 19.8v32.9c0 9.6 0.7 16.4 2.1 20.5 1.1 3.1 3.1 6.1 6 9 2.9 3 7.2 5.3 12.8 7.1s12.2 2.7 19.9 2.7c6.5 0 12.5-0.8 17.9-2.3s9.8-3.7 13.2-6.5c4.6-3.7 7.7-8 9.4-12.9s2.6-13.4 2.6-25.7v-24.9c0.1-13.1 0.2-20.1 0.3-21.1 0.1-3.8 0.5-6.2 1.1-7.2 0.5-0.7 1.4-1.3 2.6-1.7 1.3-0.4 4.8-0.7 10.7-0.8v-4.9z"/>
  <path class="st0" d="m1111.7 228.2c-0.5-0.6-0.9-1.6-1.2-3.1-0.3-2.3-0.5-6.7-0.5-13.2v-13.2c0-10.2-0.2-16.5-0.5-18.7-0.6-3.8-1.8-6.9-3.6-9.4s-4.5-4.5-8.1-6.2c-3.6-1.6-7.4-2.5-11.4-2.5-3.6 0-7.5 0.7-11.5 2.2l-13.9 11.8c0.1-5.8 0.3-9.5 0.4-11.3 0-0.4 0.1-0.8 0.1-1.2 0-0.5-0.1-0.9-0.3-1.1s-0.5-0.4-0.8-0.4-1 0.2-2 0.7c-4.6 2.2-11.9 4-21.9 5.4v4.2c5.7 0 8.9 0.1 9.7 0.3 0.8 0.3 1.4 0.7 1.7 1.2s0.6 2.3 0.7 5.2c0.1 4.6 0.2 8.8 0.2 12.8v8.9c-0.3 13.6-0.4 20.7-0.4 21.4-0.1 2.5-0.5 4.3-1 5.3-0.3 0.5-0.7 0.9-1.3 1.2s-1.4 0.5-2.4 0.6l-7.1 0.1v4.2c9.4-0.3 16.2-0.5 20.3-0.5 4.9 0 10.4 0.2 16.4 0.5v-4.2c-5.2-0.1-7.9-0.2-8.2-0.2-0.8-0.2-1.5-0.5-1.9-0.8s-0.7-0.7-0.9-1.2c-0.5-1.1-0.8-3-0.9-5.4 0-1-0.1-8-0.4-20.9v-9c0-5.5 0.7-9.3 2-11.7s3.5-4.3 6.6-6.1 6.5-2.6 10.2-2.6c4.2 0 7.8 1 10.8 3s4.9 4.7 5.7 8c0.6 2.4 0.9 7.5 0.9 15.3v12.5c0 3.2-0.3 11-1 23.2 6.4-0.3 11.1-0.5 13.8-0.5 3.2 0 7.3 0.2 12.1 0.5v-4.2l-8-0.2c-1 0.2-1.8-0.2-2.4-0.7z"/>
  <path class="st0" d="m1142.5 145.6c2.3 0 4.2-0.8 5.9-2.5s2.5-3.6 2.5-5.9-0.8-4.3-2.4-6c-1.6-1.6-3.6-2.5-5.9-2.5s-4.3 0.8-6 2.5c-1.6 1.6-2.5 3.6-2.5 6 0 2.3 0.8 4.2 2.5 5.9 1.5 1.7 3.5 2.5 5.9 2.5z"/>
  <path class="st0" d="m1151.8 228.5c-0.4-0.3-0.7-0.7-1-1.2-0.5-1.1-0.8-2.9-0.8-5.4-0.1-1-0.2-8-0.4-20.9v-13.5c0-5.6 0.2-13.7 0.6-24.2l-1.6-1.2c-6.5 3.1-14.6 5.2-24.2 6.2v4.2c5.9 0 9.2 0.2 9.9 0.6 0.8 0.4 1.3 0.9 1.6 1.7 0.5 1.4 0.7 5.8 0.7 13.2v13c-0.3 13.6-0.4 20.7-0.4 21.3-0.1 2.5-0.5 4.3-1 5.3-0.3 0.5-0.7 0.9-1.3 1.2s-1.4 0.5-2.4 0.6l-7.1 0.1v4.2c9-0.3 15.5-0.5 19.5-0.5 4.5 0 10.5 0.2 18.1 0.5v-4.2c-5.2-0.1-8-0.2-8.3-0.2-0.9-0.2-1.5-0.5-1.9-0.8z"/>
  <path class="st0" d="m1211.5 163.7v4.5c5.2 0.1 8.3 0.5 9.5 1.2 0.6 0.3 1 0.9 1 1.8 0 0.6-0.1 1.4-0.3 2.2-0.8 3.1-2.4 7.6-4.8 13.5-4.1 10.2-6.3 15.7-6.8 16.7l-7.4 16.9c-0.9-2-2.6-5.9-5-11.8l-2.2-5.1-9.1-22.6c-2-4.9-3-8.1-3-9.6 0-0.9 0.5-1.7 1.4-2.2s4.1-0.9 9.4-1v-4.5c-7.2 0.3-12.9 0.5-17.1 0.5-3.8 0-9.8-0.2-18-0.5v4.5c3 0.1 4.8 0.2 5.5 0.4 0.8 0.2 1.6 0.7 2.3 1.4s1.5 2.2 2.5 4.5l15.2 35.5 6.1 14.2c0.7 1.7 2.1 5.1 4 10.2h7.7c7.3-17.5 11.6-27.5 12.9-30.3l7.1-15.2c4.7-9.5 7.3-14.9 8-16.1 1-1.8 2-3 3-3.5 1-0.6 3.1-0.9 6.1-1.1v-4.5c-7.7 0.3-12.5 0.5-14.2 0.5s-6.4-0.1-13.8-0.5z"/>
  <path class="st0" d="m1292.1 165.4c-4.5-2.5-9.5-3.8-15.1-3.8-4.6 0-8.8 0.8-12.7 2.5-3 1.2-6 2.8-9 4.9s-5.3 3.9-6.7 5.5c-2 2.2-3.8 5.6-5.3 10.2-1.6 4.6-2.3 9.7-2.3 15.4 0 7.3 1.5 13.6 4.4 19.1 2.9 5.4 7.1 9.5 12.3 12.2 5.3 2.7 11.2 4.1 17.8 4.1 3.3 0 6.5-0.4 9.5-1.1s5.7-1.6 8-2.6c1.6-0.7 4.1-2.1 7.5-4.2l2.4-5.4-1.2-1.3c-4.4 2.6-8.1 4.4-11.1 5.3-3 1-6 1.4-9 1.4-4.5 0-8.8-1-12.9-3.1s-7.4-5.3-9.7-9.7c-2.4-4.4-3.6-10.1-3.7-17.2h23.9c5.4 0 10.7-0.2 16.1-0.6 2.8-0.2 6-0.6 9.6-1.3 0.2-2 0.3-3.7 0.3-5.1 0-5.5-1-10.4-3.1-14.8-2.2-4.4-5.5-7.8-10-10.4zm-0.7 26.7c-2.1 0.2-6.4 0.4-13 0.4-2.8 0-7.9-0.1-15.3-0.4-3.9-0.1-6.5-0.3-7.9-0.4 0-8.7 1.8-15 5.2-19s7.9-6 13.6-6c5.3 0 9.6 1.8 12.7 5.5 3.2 3.7 4.8 9.4 4.8 17.2 0 0.6 0 1.5-0.1 2.7z"/>
  <path class="st0" d="m1357.8 162c-2.1 0-4.1 0.4-6 1.2s-3.6 1.8-5.1 3.1c-0.8 0.7-2.2 2.4-4.1 4.9s-3.9 5.1-6.2 7.7c0-6.3 0.2-11 0.4-14.1 0-0.4 0.1-0.8 0.1-1.2 0-0.5-0.1-0.9-0.3-1.1s-0.5-0.4-0.8-0.4-1 0.2-2 0.7c-4.6 2.2-11.9 4-21.9 5.4v4.2c5.7 0 8.9 0.1 9.7 0.3 0.8 0.3 1.4 0.7 1.7 1.2s0.5 2.3 0.6 5.2c0.1 4.6 0.2 8.8 0.2 12.8v8.9c0 0.6-0.1 7.5-0.4 20.8-0.1 2.4-0.4 4.2-0.9 5.4-0.2 0.6-0.6 1.1-1 1.4s-1.1 0.6-1.9 0.7c-0.4 0.1-3.5 0.2-9.1 0.3v4.2c6-0.3 12.1-0.5 18.4-0.5 6.1 0 13.6 0.2 22.3 0.5v-4.2c-6.5-0.4-10.6-0.9-12.1-1.3-0.7-0.2-1.3-0.6-1.6-0.9-0.3-0.4-0.6-1-0.8-1.8s-0.3-2.8-0.4-5.9c-0.2-8.7-0.4-14.7-0.4-17.9v-7.7c0-6.3 1.3-11 4-14.2 2.7-3.1 5.9-4.7 9.7-4.7 2.3 0 4.2 0.5 5.7 1.6s2.8 2.8 4 5.2h3.3c0.1-5 0.5-10.8 1.3-17.4l-0.4-1c-1.9-0.9-4-1.4-6-1.4z"/>
  <path class="st0" d="m1413.6 196.7c-2.4-1.1-6.7-2.5-12.9-4.1l-12.3-3c-2.3-0.7-4.1-1.5-5.4-2.3-1.3-0.9-2.3-2-3.1-3.4s-1.2-3-1.2-5c0-3.5 1.3-6.5 4-9.1s6.2-3.9 10.5-3.9c3.1 0 5.7 0.4 7.8 1.2s3.8 1.7 5.2 2.7c1.3 1 2.3 2 2.8 2.9s1 1.9 1.3 3 0.6 3.5 0.9 7.1h4.2c0.1-5.7 0.4-11.3 0.7-16.8-2.6-1.3-5.9-2.4-10-3.2-4.1-0.9-7.7-1.3-10.9-1.3-5.2 0-10 1-14.4 3.1s-7.6 4.7-9.7 8-3.1 6.9-3.1 10.8c0 2.7 0.5 5.2 1.4 7.4 1 2.3 2.3 4.2 3.9 5.7s3.8 2.8 6.6 3.8c1.8 0.6 5.9 1.7 12.2 3.1s10.4 2.6 12.3 3.5 3.4 2.1 4.4 3.7 1.5 3.4 1.5 5.5c0 4.7-1.6 8.3-4.9 11-3.2 2.7-7.4 4-12.5 4-3.1 0-5.4-0.1-6.9-0.3s-3-0.6-4.5-1.2-2.8-1.5-4.1-2.6c-1.2-1.1-2.2-2.5-2.8-4.1s-1-3.3-1.3-4.9c-0.2-1.7-0.4-4-0.4-6.8h-4.5c-0.1 6.4-0.2 10.7-0.4 12.7-0.1 2-0.4 4.1-0.9 6.2-0.1 0.5-0.1 0.9-0.1 1.3 0 0.3 0.1 0.6 0.3 0.7 0.3 0.3 2.4 0.8 6.3 1.6 7.1 1.3 12.8 1.9 17 1.9 9.3 0 16.7-2.5 22.2-7.5s8.3-10.8 8.3-17.5c0-3.4-0.7-6.3-2.2-8.7-1-2.3-2.9-4.1-5.3-5.2z"/>
  <path class="st0" d="m1447.9 145.6c2.3 0 4.2-0.8 5.9-2.5s2.5-3.6 2.5-5.9-0.8-4.3-2.4-6c-1.6-1.6-3.6-2.5-5.9-2.5s-4.3 0.8-6 2.5c-1.6 1.6-2.5 3.6-2.5 6 0 2.3 0.8 4.2 2.5 5.9 1.5 1.7 3.5 2.5 5.9 2.5z"/>
  <path class="st0" d="m1457.2 228.5c-0.4-0.3-0.7-0.7-1-1.2-0.5-1.1-0.8-2.9-0.8-5.4 0-1-0.2-8-0.4-20.9v-13.5c0-5.6 0.2-13.7 0.6-24.2l-1.6-1.2c-6.5 3.1-14.6 5.2-24.2 6.2v4.2c5.9 0 9.2 0.2 9.9 0.6 0.8 0.4 1.3 0.9 1.6 1.7 0.5 1.4 0.7 5.8 0.7 13.2v13c-0.3 13.6-0.4 20.7-0.4 21.3-0.1 2.5-0.5 4.3-1 5.3-0.3 0.5-0.7 0.9-1.3 1.2s-1.4 0.5-2.4 0.6l-7.1 0.1v4.2c9-0.3 15.5-0.5 19.5-0.5 4.5 0 10.5 0.2 18.1 0.5v-4.2c-5.2-0.1-8-0.2-8.3-0.2-0.9-0.2-1.5-0.5-1.9-0.8z"/>
  <path class="st0" d="m1494.1 174.6c4.7 0 8.3-0.1 10.9-0.1s5.5 0 8.6 0.1l1.6-6.9-0.5-0.5c-1.3 0.1-3.2 0.2-5.8 0.3-4.7 0.1-7.2 0.1-7.7 0.1-0.8 0-3.2 0-7.1-0.1 0.6-14 1.2-23.1 1.8-27.2l-1.8-1.5c-3.2 2-7.4 3.9-12.6 5.7 0.3 3.3 0.4 10.8 0.4 22.6-2.9 1.5-6.9 3.2-11.8 5.1v3.1c3.1-0.2 5.9-0.4 8.3-0.4h3v30.9c0 0.9 0 1.8-0.1 2.6-0.1 4-0.2 7.7-0.3 11.1 0.2 3.5 0.8 6.1 1.6 7.7s1.9 3 3.2 4.1 2.7 1.9 4.3 2.5 3.7 0.9 6.3 0.9c2.1 0 4-0.1 5.7-0.3 1.6-0.2 3.4-0.7 5.3-1.4 2.2-2 4.4-3.9 6.8-5.7l-0.9-2.9c-1.9 0.7-3.5 1.1-4.8 1.3s-2.9 0.3-4.9 0.3c-2.7-0.3-4.6-0.8-5.7-1.5-1.1-0.6-2-1.5-2.7-2.6s-1.2-2.3-1.4-3.8c-0.2-1.4-0.3-5.9-0.1-13.2l0.4-30.3z"/>
  <path class="st0" d="m1585.5 164.2c-4.4 0-9.5-0.2-15.2-0.5v4.5c5.2 0.5 8.2 1 9 1.5s1.2 1.3 1.2 2.2c0 0.6-0.1 1.3-0.3 2.1-0.6 2.3-2.9 8.3-6.8 18s-6.6 16.3-8.1 19.8l-3.9 8.8c-1.9-4.3-4.3-9.9-7.1-16.9l-4.7-11.6c-1.7-4.3-3.6-9.5-5.5-15.6-0.8-2.5-1.3-4.1-1.3-4.9 0-1.3 0.6-2.2 1.9-2.7 0.7-0.3 3.7-0.6 8.8-1v-4.2c-5.4 0.3-11 0.5-16.9 0.5-6 0-12.1-0.2-18.2-0.5v4.2c3.5 0.4 5.8 0.9 6.8 1.5s2 1.8 2.9 3.7c2.2 4.7 5.1 11.3 8.6 20.1l11.8 29.3c2.2 5.6 4.1 10.6 5.7 15-2.1 5.5-4.4 10.9-7.1 16.2-1.7 3.5-3.2 6-4.5 7.4s-2.6 2.5-4.1 3.2-3 1-4.5 1-2.6-0.1-3.4-0.4c-0.8-0.2-1.5-0.6-2.2-1.1s-1.5-1.1-2.4-1.9h-1.8l-3.8 11.5c1.6 0.9 3.1 1.5 4.4 1.9s2.8 0.6 4.4 0.6c3.4 0 6.5-0.7 9.3-2.2 2.8-1.4 5.3-3.5 7.3-6.3s4.4-7.4 7.2-13.9l17.2-40.1c7.6-16.6 12.8-27.8 15.6-33.5s4.9-9 6.3-10 3.3-1.5 5.9-1.6l0.7-4.5c-4.4 0.3-8.8 0.4-13.2 0.4z"/>
</svg>
